<mxfile host="app.diagrams.net" agent="Mozilla/5.0 (X11; Ubuntu; Linux x86_64; rv:136.0) Gecko/20100101 Firefox/136.0" version="26.2.13" pages="2">
  <diagram name="Page-1" id="l6ML-v43p_D1r5-UYhui">
    <mxGraphModel dx="1428" dy="1615" grid="1" gridSize="10" guides="1" tooltips="1" connect="1" arrows="1" fold="1" page="1" pageScale="1" pageWidth="1100" pageHeight="850" math="0" shadow="0">
      <root>
        <mxCell id="0" />
        <mxCell id="1" parent="0" />
        <mxCell id="tdPFQNoN-f4lVEARMO5O-19" style="edgeStyle=orthogonalEdgeStyle;rounded=0;orthogonalLoop=1;jettySize=auto;html=1;exitX=1;exitY=0.5;exitDx=0;exitDy=0;" parent="1" source="tdPFQNoN-f4lVEARMO5O-17" target="tdPFQNoN-f4lVEARMO5O-18" edge="1">
          <mxGeometry relative="1" as="geometry" />
        </mxCell>
        <mxCell id="tdPFQNoN-f4lVEARMO5O-17" value="&lt;div&gt;Ready Queue SPN&lt;/div&gt;&lt;div&gt;(Shortest Process Next)&lt;/div&gt;" style="rounded=0;whiteSpace=wrap;html=1;fillColor=#fff2cc;strokeColor=#d6b656;" parent="1" vertex="1">
          <mxGeometry x="509.97" y="-590" width="200" height="40" as="geometry" />
        </mxCell>
        <mxCell id="tdPFQNoN-f4lVEARMO5O-26" style="edgeStyle=orthogonalEdgeStyle;rounded=0;orthogonalLoop=1;jettySize=auto;html=1;exitX=1;exitY=0.5;exitDx=0;exitDy=0;entryX=0;entryY=0.5;entryDx=0;entryDy=0;" parent="1" source="tdPFQNoN-f4lVEARMO5O-18" target="tdPFQNoN-f4lVEARMO5O-25" edge="1">
          <mxGeometry relative="1" as="geometry" />
        </mxCell>
        <mxCell id="tdPFQNoN-f4lVEARMO5O-35" style="edgeStyle=orthogonalEdgeStyle;rounded=0;orthogonalLoop=1;jettySize=auto;html=1;entryX=1;entryY=0.5;entryDx=0;entryDy=0;entryPerimeter=0;" parent="1" source="tdPFQNoN-f4lVEARMO5O-18" target="ZJ_MMsVrEr0XxcRse31L-15" edge="1">
          <mxGeometry relative="1" as="geometry">
            <Array as="points">
              <mxPoint x="790" y="-505" />
            </Array>
            <mxPoint x="440" y="-510" as="targetPoint" />
          </mxGeometry>
        </mxCell>
        <mxCell id="tdPFQNoN-f4lVEARMO5O-36" value="Yield" style="edgeLabel;html=1;align=center;verticalAlign=middle;resizable=0;points=[];" parent="tdPFQNoN-f4lVEARMO5O-35" vertex="1" connectable="0">
          <mxGeometry x="-0.0458" relative="1" as="geometry">
            <mxPoint as="offset" />
          </mxGeometry>
        </mxCell>
        <mxCell id="tdPFQNoN-f4lVEARMO5O-18" value="Running" style="rounded=0;whiteSpace=wrap;html=1;fillColor=#f8cecc;strokeColor=#b85450;" parent="1" vertex="1">
          <mxGeometry x="749.97" y="-590" width="80" height="40" as="geometry" />
        </mxCell>
        <mxCell id="tdPFQNoN-f4lVEARMO5O-20" value="Dormant Queue" style="rounded=0;whiteSpace=wrap;html=1;fillColor=#fff2cc;strokeColor=#d6b656;" parent="1" vertex="1">
          <mxGeometry x="504.97" y="-360" width="210" height="40" as="geometry" />
        </mxCell>
        <mxCell id="tdPFQNoN-f4lVEARMO5O-23" style="edgeStyle=orthogonalEdgeStyle;rounded=0;orthogonalLoop=1;jettySize=auto;html=1;entryX=0.5;entryY=0;entryDx=0;entryDy=0;" parent="1" source="tdPFQNoN-f4lVEARMO5O-22" target="tdPFQNoN-f4lVEARMO5O-18" edge="1">
          <mxGeometry relative="1" as="geometry" />
        </mxCell>
        <mxCell id="tdPFQNoN-f4lVEARMO5O-24" value="Ready = Empty" style="edgeLabel;html=1;align=center;verticalAlign=middle;resizable=0;points=[];" parent="tdPFQNoN-f4lVEARMO5O-23" vertex="1" connectable="0">
          <mxGeometry x="-0.2786" y="1" relative="1" as="geometry">
            <mxPoint as="offset" />
          </mxGeometry>
        </mxCell>
        <mxCell id="tdPFQNoN-f4lVEARMO5O-22" value="Null Task" style="rounded=0;whiteSpace=wrap;html=1;fillColor=#dae8fc;strokeColor=#6c8ebf;" parent="1" vertex="1">
          <mxGeometry x="509.97" y="-670" width="80" height="40" as="geometry" />
        </mxCell>
        <mxCell id="tdPFQNoN-f4lVEARMO5O-28" style="edgeStyle=orthogonalEdgeStyle;rounded=0;orthogonalLoop=1;jettySize=auto;html=1;entryX=1;entryY=0.5;entryDx=0;entryDy=0;entryPerimeter=0;" parent="1" source="tdPFQNoN-f4lVEARMO5O-25" target="ZJ_MMsVrEr0XxcRse31L-17" edge="1">
          <mxGeometry relative="1" as="geometry">
            <Array as="points">
              <mxPoint x="890" y="-340" />
            </Array>
            <mxPoint x="889.97" y="-370" as="targetPoint" />
          </mxGeometry>
        </mxCell>
        <mxCell id="tdPFQNoN-f4lVEARMO5O-41" value="Exit" style="edgeLabel;html=1;align=center;verticalAlign=middle;resizable=0;points=[];" parent="tdPFQNoN-f4lVEARMO5O-28" vertex="1" connectable="0">
          <mxGeometry x="-0.5374" y="-2" relative="1" as="geometry">
            <mxPoint y="-4" as="offset" />
          </mxGeometry>
        </mxCell>
        <mxCell id="tdPFQNoN-f4lVEARMO5O-25" value="Exit" style="rounded=0;whiteSpace=wrap;html=1;fillColor=#d5e8d4;strokeColor=#82b366;" parent="1" vertex="1">
          <mxGeometry x="869.97" y="-590" width="40" height="40" as="geometry" />
        </mxCell>
        <mxCell id="tdPFQNoN-f4lVEARMO5O-37" style="edgeStyle=orthogonalEdgeStyle;rounded=0;orthogonalLoop=1;jettySize=auto;html=1;exitX=0.5;exitY=0;exitDx=0;exitDy=0;entryX=0;entryY=0.5;entryDx=0;entryDy=0;exitPerimeter=0;" parent="1" source="ZJ_MMsVrEr0XxcRse31L-15" target="tdPFQNoN-f4lVEARMO5O-17" edge="1">
          <mxGeometry relative="1" as="geometry">
            <mxPoint x="410" y="-550" as="sourcePoint" />
          </mxGeometry>
        </mxCell>
        <mxCell id="ZJ_MMsVrEr0XxcRse31L-1" value="" style="endArrow=classic;html=1;rounded=0;exitX=0;exitY=0.5;exitDx=0;exitDy=0;entryX=1;entryY=0.5;entryDx=0;entryDy=0;exitPerimeter=0;" edge="1" parent="1" source="ZJ_MMsVrEr0XxcRse31L-17" target="tdPFQNoN-f4lVEARMO5O-20">
          <mxGeometry width="50" height="50" relative="1" as="geometry">
            <mxPoint x="829.97" y="-340" as="sourcePoint" />
            <mxPoint x="730" y="-460" as="targetPoint" />
          </mxGeometry>
        </mxCell>
        <mxCell id="ZJ_MMsVrEr0XxcRse31L-2" value="Sleeping Queue" style="rounded=0;whiteSpace=wrap;html=1;fillColor=#fff2cc;strokeColor=#d6b656;" vertex="1" parent="1">
          <mxGeometry x="504.97" y="-440" width="210" height="40" as="geometry" />
        </mxCell>
        <mxCell id="ZJ_MMsVrEr0XxcRse31L-4" value="" style="edgeStyle=elbowEdgeStyle;elbow=vertical;endArrow=classic;html=1;curved=0;rounded=0;endSize=8;startSize=8;exitX=0;exitY=0.5;exitDx=0;exitDy=0;entryX=1;entryY=0.5;entryDx=0;entryDy=0;exitPerimeter=0;" edge="1" parent="1" source="ZJ_MMsVrEr0XxcRse31L-19" target="ZJ_MMsVrEr0XxcRse31L-2">
          <mxGeometry width="50" height="50" relative="1" as="geometry">
            <mxPoint x="680" y="-440" as="sourcePoint" />
            <mxPoint x="730" y="-490" as="targetPoint" />
            <Array as="points" />
          </mxGeometry>
        </mxCell>
        <mxCell id="ZJ_MMsVrEr0XxcRse31L-6" value="" style="edgeStyle=elbowEdgeStyle;elbow=horizontal;endArrow=classic;html=1;curved=0;rounded=0;endSize=8;startSize=8;exitX=0;exitY=0.5;exitDx=0;exitDy=0;entryX=0.5;entryY=1;entryDx=0;entryDy=0;entryPerimeter=0;" edge="1" parent="1" source="ZJ_MMsVrEr0XxcRse31L-2" target="ZJ_MMsVrEr0XxcRse31L-15">
          <mxGeometry width="50" height="50" relative="1" as="geometry">
            <mxPoint x="680" y="-440" as="sourcePoint" />
            <mxPoint x="410" y="-470" as="targetPoint" />
            <Array as="points">
              <mxPoint x="415" y="-450" />
            </Array>
          </mxGeometry>
        </mxCell>
        <mxCell id="ZJ_MMsVrEr0XxcRse31L-23" value="Time Elapsed" style="edgeLabel;html=1;align=center;verticalAlign=middle;resizable=0;points=[];" vertex="1" connectable="0" parent="ZJ_MMsVrEr0XxcRse31L-6">
          <mxGeometry x="-0.4574" relative="1" as="geometry">
            <mxPoint as="offset" />
          </mxGeometry>
        </mxCell>
        <mxCell id="ZJ_MMsVrEr0XxcRse31L-12" value="&lt;div&gt;&lt;b&gt;Switch Process If Needed&lt;/b&gt;&lt;/div&gt;&lt;div align=&quot;left&quot;&gt;1. Return if switch is not&amp;nbsp;&amp;nbsp;&amp;nbsp;&amp;nbsp; &amp;nbsp; &amp;nbsp; &amp;nbsp; &amp;nbsp; needed&lt;/div&gt;&lt;div align=&quot;left&quot;&gt;2. Registers to PSP&lt;/div&gt;&lt;div align=&quot;left&quot;&gt;2. Schedule&lt;/div&gt;&lt;div align=&quot;left&quot;&gt;3. Set new PSP&lt;/div&gt;&lt;div align=&quot;left&quot;&gt;4. New PSP to Reg&lt;/div&gt;" style="rounded=0;whiteSpace=wrap;html=1;fillColor=#f5f5f5;fontColor=#333333;strokeColor=#666666;" vertex="1" parent="1">
          <mxGeometry x="190" y="-555" width="160" height="100" as="geometry" />
        </mxCell>
        <mxCell id="ZJ_MMsVrEr0XxcRse31L-14" value="" style="shape=image;html=1;verticalAlign=top;verticalLabelPosition=bottom;labelBackgroundColor=#ffffff;imageAspect=0;aspect=fixed;image=https://cdn0.iconfinder.com/data/icons/geosm-e-commerce/48/equals-128.png" vertex="1" parent="1">
          <mxGeometry x="360" y="-520" width="30" height="30" as="geometry" />
        </mxCell>
        <mxCell id="ZJ_MMsVrEr0XxcRse31L-15" value="S" style="strokeWidth=2;html=1;shape=mxgraph.flowchart.decision;whiteSpace=wrap;fillColor=#ffe6cc;strokeColor=#d79b00;" vertex="1" parent="1">
          <mxGeometry x="400" y="-520" width="30" height="30" as="geometry" />
        </mxCell>
        <mxCell id="ZJ_MMsVrEr0XxcRse31L-17" value="S" style="strokeWidth=2;html=1;shape=mxgraph.flowchart.decision;whiteSpace=wrap;fillColor=#ffe6cc;strokeColor=#d79b00;" vertex="1" parent="1">
          <mxGeometry x="740" y="-355" width="30" height="30" as="geometry" />
        </mxCell>
        <mxCell id="ZJ_MMsVrEr0XxcRse31L-20" value="" style="edgeStyle=elbowEdgeStyle;elbow=vertical;endArrow=classic;html=1;curved=0;rounded=0;endSize=8;startSize=8;exitX=0.5;exitY=1;exitDx=0;exitDy=0;entryX=1;entryY=0.5;entryDx=0;entryDy=0;" edge="1" parent="1" source="tdPFQNoN-f4lVEARMO5O-18" target="ZJ_MMsVrEr0XxcRse31L-19">
          <mxGeometry width="50" height="50" relative="1" as="geometry">
            <mxPoint x="790" y="-550" as="sourcePoint" />
            <mxPoint x="715" y="-420" as="targetPoint" />
            <Array as="points">
              <mxPoint x="750" y="-420" />
            </Array>
          </mxGeometry>
        </mxCell>
        <mxCell id="ZJ_MMsVrEr0XxcRse31L-21" value="Sleep / Periodic Yield" style="edgeLabel;html=1;align=center;verticalAlign=middle;resizable=0;points=[];" vertex="1" connectable="0" parent="ZJ_MMsVrEr0XxcRse31L-20">
          <mxGeometry x="-0.1755" relative="1" as="geometry">
            <mxPoint y="9" as="offset" />
          </mxGeometry>
        </mxCell>
        <mxCell id="ZJ_MMsVrEr0XxcRse31L-19" value="S" style="strokeWidth=2;html=1;shape=mxgraph.flowchart.decision;whiteSpace=wrap;fillColor=#ffe6cc;strokeColor=#d79b00;" vertex="1" parent="1">
          <mxGeometry x="740" y="-435" width="30" height="30" as="geometry" />
        </mxCell>
        <mxCell id="ZJ_MMsVrEr0XxcRse31L-22" value="&amp;nbsp;" style="text;whiteSpace=wrap;html=1;" vertex="1" parent="1">
          <mxGeometry x="200" y="-492.5" width="40" height="40" as="geometry" />
        </mxCell>
        <mxCell id="ZJ_MMsVrEr0XxcRse31L-25" value="&amp;nbsp;" style="text;whiteSpace=wrap;html=1;" vertex="1" parent="1">
          <mxGeometry x="190" y="-210" width="40" height="40" as="geometry" />
        </mxCell>
      </root>
    </mxGraphModel>
  </diagram>
  <diagram id="OY6wSwgizUWUA3PV08Y8" name="Page-2">
    <mxGraphModel dx="816" dy="437" grid="1" gridSize="10" guides="1" tooltips="1" connect="1" arrows="1" fold="1" page="1" pageScale="1" pageWidth="850" pageHeight="1100" math="0" shadow="0">
      <root>
        <mxCell id="0" />
        <mxCell id="1" parent="0" />
        <mxCell id="4iJXfIpyT-tfChT2IOc9-22" value="" style="rounded=0;whiteSpace=wrap;html=1;" vertex="1" parent="1">
          <mxGeometry x="425" y="190" width="320" height="150" as="geometry" />
        </mxCell>
        <mxCell id="63xQwohvRUoK9KMoF2Nb-1" value="&lt;div&gt;MSP&lt;/div&gt;" style="rounded=0;whiteSpace=wrap;html=1;fillColor=#fff2cc;strokeColor=#d6b656;" vertex="1" parent="1">
          <mxGeometry x="110" y="130" width="120" height="20" as="geometry" />
        </mxCell>
        <mxCell id="63xQwohvRUoK9KMoF2Nb-3" value="&lt;div&gt;Kernel Variables&lt;/div&gt;&lt;div&gt;Free List&lt;br&gt;TCBs&lt;/div&gt;" style="rounded=0;whiteSpace=wrap;html=1;fillColor=#fff2cc;strokeColor=#d6b656;" vertex="1" parent="1">
          <mxGeometry x="110" y="150" width="120" height="60" as="geometry" />
        </mxCell>
        <mxCell id="63xQwohvRUoK9KMoF2Nb-9" value="" style="shape=curlyBracket;whiteSpace=wrap;html=1;rounded=1;flipH=1;labelPosition=right;verticalLabelPosition=middle;align=left;verticalAlign=middle;size=0.5;" vertex="1" parent="1">
          <mxGeometry x="230" y="130" width="20" height="80" as="geometry" />
        </mxCell>
        <mxCell id="63xQwohvRUoK9KMoF2Nb-10" value="" style="shape=curlyBracket;whiteSpace=wrap;html=1;rounded=1;flipH=1;labelPosition=right;verticalLabelPosition=middle;align=left;verticalAlign=middle;size=0.5;" vertex="1" parent="1">
          <mxGeometry x="230" y="210" width="20" height="190" as="geometry" />
        </mxCell>
        <mxCell id="63xQwohvRUoK9KMoF2Nb-12" value="Kernel Space" style="rounded=0;whiteSpace=wrap;html=1;fillColor=#f5f5f5;fontColor=#333333;strokeColor=#666666;" vertex="1" parent="1">
          <mxGeometry x="250" y="160" width="120" height="20" as="geometry" />
        </mxCell>
        <mxCell id="63xQwohvRUoK9KMoF2Nb-13" value="User Space" style="rounded=0;whiteSpace=wrap;html=1;fillColor=#f5f5f5;fontColor=#333333;strokeColor=#666666;" vertex="1" parent="1">
          <mxGeometry x="250" y="295" width="120" height="20" as="geometry" />
        </mxCell>
        <mxCell id="4iJXfIpyT-tfChT2IOc9-9" value="&lt;div&gt;Free Data&lt;/div&gt;" style="rounded=0;whiteSpace=wrap;html=1;fillColor=#dae8fc;strokeColor=#6c8ebf;" vertex="1" parent="1">
          <mxGeometry x="110" y="210" width="120" height="40" as="geometry" />
        </mxCell>
        <mxCell id="4iJXfIpyT-tfChT2IOc9-10" value="&lt;div style=&quot;line-height: 0%;&quot;&gt;&lt;font style=&quot;font-size: 6px;&quot;&gt;Metadata&lt;/font&gt;&lt;/div&gt;" style="rounded=0;whiteSpace=wrap;html=1;fillColor=#f5f5f5;fontColor=#333333;strokeColor=#666666;" vertex="1" parent="1">
          <mxGeometry x="110" y="250" width="120" height="10" as="geometry" />
        </mxCell>
        <mxCell id="4iJXfIpyT-tfChT2IOc9-11" value="&lt;div&gt;Allocated Data&lt;/div&gt;" style="rounded=0;whiteSpace=wrap;html=1;fillColor=#f8cecc;strokeColor=#b85450;" vertex="1" parent="1">
          <mxGeometry x="110" y="260" width="120" height="40" as="geometry" />
        </mxCell>
        <mxCell id="4iJXfIpyT-tfChT2IOc9-12" value="&lt;div style=&quot;line-height: 0%;&quot;&gt;&lt;font style=&quot;font-size: 6px;&quot;&gt;Metadata&lt;/font&gt;&lt;/div&gt;" style="rounded=0;whiteSpace=wrap;html=1;fillColor=#f5f5f5;fontColor=#333333;strokeColor=#666666;" vertex="1" parent="1">
          <mxGeometry x="110" y="300" width="120" height="10" as="geometry" />
        </mxCell>
        <mxCell id="4iJXfIpyT-tfChT2IOc9-13" value="&lt;div&gt;Free Data&lt;/div&gt;" style="rounded=0;whiteSpace=wrap;html=1;fillColor=#dae8fc;strokeColor=#6c8ebf;" vertex="1" parent="1">
          <mxGeometry x="110" y="310" width="120" height="80" as="geometry" />
        </mxCell>
        <mxCell id="4iJXfIpyT-tfChT2IOc9-14" value="&lt;div style=&quot;line-height: 0%;&quot;&gt;&lt;font style=&quot;font-size: 6px;&quot;&gt;Metadata&lt;/font&gt;&lt;/div&gt;" style="rounded=0;whiteSpace=wrap;html=1;fillColor=#f5f5f5;fontColor=#333333;strokeColor=#666666;" vertex="1" parent="1">
          <mxGeometry x="110" y="390" width="120" height="10" as="geometry" />
        </mxCell>
        <mxCell id="4iJXfIpyT-tfChT2IOc9-15" value="&lt;div&gt;Free Data&lt;/div&gt;" style="rounded=0;whiteSpace=wrap;html=1;fillColor=#dae8fc;strokeColor=#6c8ebf;" vertex="1" parent="1">
          <mxGeometry x="445" y="220" width="120" height="40" as="geometry" />
        </mxCell>
        <mxCell id="4iJXfIpyT-tfChT2IOc9-16" value="&lt;div style=&quot;line-height: 0%;&quot;&gt;&lt;font style=&quot;font-size: 6px;&quot;&gt;Metadata&lt;/font&gt;&lt;/div&gt;" style="rounded=0;whiteSpace=wrap;html=1;fillColor=#f5f5f5;strokeColor=#666666;fontColor=#333333;" vertex="1" parent="1">
          <mxGeometry x="445" y="260" width="120" height="10" as="geometry" />
        </mxCell>
        <mxCell id="4iJXfIpyT-tfChT2IOc9-17" value="&lt;div&gt;Free Data&lt;/div&gt;" style="rounded=0;whiteSpace=wrap;html=1;fillColor=#dae8fc;strokeColor=#6c8ebf;" vertex="1" parent="1">
          <mxGeometry x="605" y="220" width="120" height="80" as="geometry" />
        </mxCell>
        <mxCell id="4iJXfIpyT-tfChT2IOc9-18" value="&lt;div style=&quot;line-height: 0%;&quot;&gt;&lt;font style=&quot;font-size: 6px;&quot;&gt;Metadata&lt;/font&gt;&lt;/div&gt;" style="rounded=0;whiteSpace=wrap;html=1;fillColor=#f5f5f5;strokeColor=#666666;fontColor=#333333;" vertex="1" parent="1">
          <mxGeometry x="605" y="300" width="120" height="10" as="geometry" />
        </mxCell>
        <mxCell id="4iJXfIpyT-tfChT2IOc9-20" value="" style="curved=1;endArrow=classic;html=1;rounded=0;exitX=1;exitY=0.5;exitDx=0;exitDy=0;entryX=0;entryY=0.5;entryDx=0;entryDy=0;" edge="1" parent="1" source="4iJXfIpyT-tfChT2IOc9-16" target="4iJXfIpyT-tfChT2IOc9-18">
          <mxGeometry width="50" height="50" relative="1" as="geometry">
            <mxPoint x="505" y="280" as="sourcePoint" />
            <mxPoint x="555" y="230" as="targetPoint" />
            <Array as="points">
              <mxPoint x="585" y="270" />
              <mxPoint x="585" y="305" />
            </Array>
          </mxGeometry>
        </mxCell>
        <mxCell id="4iJXfIpyT-tfChT2IOc9-23" value="Free List Structure" style="rounded=0;whiteSpace=wrap;html=1;fillColor=#f5f5f5;strokeColor=#666666;fontColor=#333333;" vertex="1" parent="1">
          <mxGeometry x="425" y="190" width="320" height="20" as="geometry" />
        </mxCell>
        <mxCell id="4iJXfIpyT-tfChT2IOc9-25" value="" style="endArrow=none;html=1;rounded=0;exitX=0;exitY=0;exitDx=0;exitDy=0;entryX=1;entryY=1;entryDx=0;entryDy=0;" edge="1" parent="1" source="4iJXfIpyT-tfChT2IOc9-9" target="63xQwohvRUoK9KMoF2Nb-3">
          <mxGeometry width="50" height="50" relative="1" as="geometry">
            <mxPoint x="210" y="240" as="sourcePoint" />
            <mxPoint x="260" y="190" as="targetPoint" />
          </mxGeometry>
        </mxCell>
        <mxCell id="4iJXfIpyT-tfChT2IOc9-26" value="" style="whiteSpace=wrap;html=1;fillColor=none;direction=west;" vertex="1" parent="1">
          <mxGeometry x="110" y="130" width="120" height="270" as="geometry" />
        </mxCell>
      </root>
    </mxGraphModel>
  </diagram>
</mxfile>
